<svg width="18" height="19" viewBox="0 0 18 19" fill="none" xmlns="http://www.w3.org/2000/svg">
<path d="M16.8 9.94473H2.4V3.19473C2.3993 2.94053 2.44904 2.68871 2.54632 2.45386C2.6436 2.21901 2.7865 2.00579 2.96674 1.82654L2.98174 1.81154C3.26421 1.52948 3.62688 1.34151 4.02019 1.2733C4.41351 1.2051 4.81829 1.25998 5.17924 1.43046C4.83835 1.99724 4.69666 2.66168 4.77669 3.31821C4.85671 3.97473 5.15386 4.58569 5.62091 5.05398L6.03158 5.46464L5.27569 6.22056L6.12416 7.06904L6.88005 6.31315L11.0684 2.12489L11.8243 1.369L10.9758 0.520489L10.2198 1.27638L9.80918 0.865714C9.3175 0.375413 8.66938 0.0731732 7.97774 0.0116636C7.28611 -0.0498459 6.59482 0.133274 6.02434 0.529114C5.42277 0.149206 4.70988 -0.0148024 4.00277 0.06403C3.29566 0.142862 2.63639 0.459848 2.13326 0.962914L2.11826 0.977914C1.82623 1.26835 1.5947 1.61382 1.43708 1.99434C1.27946 2.37486 1.19888 2.78286 1.2 3.19473V9.94473H0V11.1447H1.2V12.296C1.19997 12.3927 1.21557 12.4888 1.2462 12.5806L2.3625 15.9293C2.42207 16.1086 2.53662 16.2646 2.68988 16.375C2.84313 16.4855 3.0273 16.5449 3.21623 16.5447H3.69998L3.2625 18.0447H4.51249L4.95 16.5447H12.7538L13.2038 18.0447H14.4563L14.0063 16.5447H14.7836C14.9726 16.5449 15.1568 16.4856 15.3101 16.3751C15.4633 16.2646 15.5779 16.1086 15.6375 15.9293L16.7537 12.5806C16.7844 12.4888 16.8 12.3927 16.8 12.296V11.1447H18V9.94473H16.8ZM6.4695 1.71423C6.8001 1.38435 7.24805 1.19908 7.71508 1.19908C8.18211 1.19908 8.63006 1.38435 8.96066 1.71423L9.37125 2.12489L6.88016 4.61598L6.4695 4.20539C6.13964 3.87478 5.95439 3.42683 5.95439 2.95981C5.95439 2.49279 6.13964 2.04483 6.4695 1.71423ZM15.6 12.2472L14.5675 15.3447H3.43245L2.4 12.2472V11.1447H15.6V12.2472Z" fill="#2B2B2B"/>
</svg>
