<svg width="22" height="22" viewBox="0 0 22 22" fill="none" xmlns="http://www.w3.org/2000/svg">
<path d="M11 0C8.00969 0 7.63702 0.0144393 6.46675 0.0639455C5.29166 0.121703 4.49681 0.303913 3.79547 0.576197C3.07213 0.859482 2.45606 1.23559 1.84754 1.84754C1.2349 2.45606 0.855357 3.07213 0.576197 3.79547C0.303913 4.49681 0.121703 5.29166 0.0639455 6.46675C0.0110014 7.6377 0 8.00969 0 11C0 13.9903 0.0144393 14.363 0.0639455 15.5333C0.121703 16.7049 0.303913 17.5032 0.576197 18.2045C0.859482 18.9279 1.23559 19.5439 1.84754 20.1525C2.45606 20.7651 3.07213 21.1446 3.79547 21.4238C4.49681 21.6926 5.2951 21.8783 6.46675 21.9361C7.6377 21.989 8.00969 22 11 22C13.9903 22 14.363 21.9856 15.5333 21.9361C16.7049 21.8783 17.5032 21.692 18.2045 21.4238C18.9279 21.1405 19.5439 20.7644 20.1525 20.1525C20.7651 19.5439 21.1446 18.9313 21.4238 18.2045C21.6926 17.5032 21.8783 16.7049 21.9361 15.5333C21.989 14.3623 22 13.9903 22 11C22 8.00969 21.9856 7.63702 21.9361 6.46675C21.8783 5.2951 21.692 4.49269 21.4238 3.79547C21.1405 3.07213 20.7644 2.45606 20.1525 1.84754C19.5439 1.2349 18.9313 0.855357 18.2045 0.576197C17.5032 0.303913 16.7049 0.121703 15.5333 0.0639455C14.3623 0.0110014 13.9903 0 11 0ZM11 1.98025C13.9367 1.98025 14.2873 1.99469 15.448 2.04419C16.5186 2.09439 17.1016 2.27316 17.4887 2.42443C18.0051 2.62452 18.3661 2.86105 18.7567 3.24747C19.1396 3.63045 19.3762 3.99556 19.5763 4.51194C19.7275 4.89905 19.9063 5.48212 19.9565 6.55269C20.006 7.71334 20.0204 8.0647 20.0204 11.0007C20.0204 13.9367 20.006 14.288 19.9524 15.4487C19.8946 16.5193 19.7158 17.1023 19.5653 17.4894C19.3569 18.0058 19.1245 18.3668 18.7408 18.7573C18.3537 19.1403 17.9852 19.3769 17.4729 19.5769C17.0906 19.7282 16.4993 19.907 15.4246 19.9572C14.2578 20.0067 13.914 20.0211 10.9697 20.0211C8.0255 20.0211 7.6824 20.0067 6.51419 19.9531C5.44362 19.8953 4.85298 19.7165 4.46587 19.5659C3.94331 19.3576 3.58507 19.1252 3.2014 18.7415C2.81429 18.3544 2.56813 17.9859 2.37836 17.4736C2.22434 17.0913 2.04832 16.5 1.99125 15.4253C1.95206 14.2722 1.93349 13.9147 1.93349 10.9842C1.93349 8.05507 1.95206 7.69684 1.99125 6.52932C2.04832 5.45462 2.22434 4.86467 2.37836 4.481C2.56813 3.95774 2.81498 3.6002 3.2014 3.21309C3.58439 2.8301 3.94331 2.58257 4.46587 2.38867C4.85298 2.23809 5.42918 2.05932 6.50388 2.00569C7.67071 1.96375 8.0145 1.94862 10.9546 1.94862L11 1.98025ZM11 5.35423C7.87767 5.35423 5.35286 7.88249 5.35286 11.0014C5.35286 14.1237 7.88111 16.6485 11 16.6485C14.1223 16.6485 16.6471 14.1203 16.6471 11.0014C16.6471 7.87905 14.1189 5.35423 11 5.35423ZM11 14.6683C8.973 14.6683 7.3331 13.0284 7.3331 11.0014C7.3331 8.97437 8.973 7.33448 11 7.33448C13.027 7.33448 14.6669 8.97437 14.6669 11.0014C14.6669 13.0284 13.027 14.6683 11 14.6683ZM18.1949 5.1287C18.1949 5.85961 17.6001 6.44956 16.8727 6.44956C16.1418 6.44956 15.5518 5.85892 15.5518 5.1287C15.5518 4.40193 16.1459 3.8106 16.8727 3.8106C17.5994 3.8106 18.1949 4.40193 18.1949 5.1287Z" fill="#3A0CA3"/>
</svg>
