<svg width="22" height="22" viewBox="0 0 22 22" fill="none" xmlns="http://www.w3.org/2000/svg">
<path d="M4.92481 21.9998H0.363783V7.31179H4.92481V21.9998ZM2.64155 5.30824C1.18328 5.30824 0 4.09982 0 2.64155C0 1.18328 1.18249 0 2.64155 0C4.10061 0 5.2831 1.18249 5.2831 2.64155C5.2831 4.09982 4.09982 5.30824 2.64155 5.30824ZM21.9951 21.9998H17.4443V14.8499C17.4443 13.1457 17.4097 10.9606 15.073 10.9606C12.7017 10.9606 12.338 12.8117 12.338 14.7273V21.9998H7.78165V7.31179H12.1557V9.31535H12.2193C12.8282 8.16114 14.3156 6.9433 16.5344 6.9433C21.1505 6.9433 21.999 9.9832 21.999 13.9314V21.9998H21.9951Z" fill="#3A0CA3"/>
</svg>
