<svg width="34" height="34" viewBox="0 0 34 34" fill="none" xmlns="http://www.w3.org/2000/svg">
<path d="M25.9513 33.0417H16.2585C15.6175 33.0417 15.086 32.5101 15.086 31.8692C15.086 31.2282 15.6175 30.6966 16.2585 30.6966H25.9513C27.6241 30.6966 29.2656 29.3051 29.547 27.6479L31.6263 15.2038C31.8139 14.0782 31.1887 12.4677 30.3132 11.7642L19.479 3.10336C18.2283 2.10281 16.1491 2.1028 14.914 3.08771L4.07999 11.7642C3.18888 12.4834 2.57917 14.0782 2.76678 15.2038L3.20452 17.8457C3.31395 18.4867 2.87623 19.0964 2.23525 19.1902C1.59427 19.3152 1.00022 18.8619 0.89078 18.2209L0.453041 15.5946C0.124736 13.6561 1.06277 11.1703 2.61049 9.93522L13.4445 1.25852C15.5394 -0.429904 18.838 -0.414254 20.9486 1.27417L31.7826 9.93522C33.3147 11.1703 34.2527 13.6561 33.9401 15.5946L31.8608 28.0388C31.3918 30.8059 28.7497 33.0417 25.9513 33.0417Z" fill="#4361EE"/>
<path d="M6.2538 33.3389C5.61283 33.3389 5.09692 32.823 5.08128 32.1977C5.03438 30.0871 3.64301 28.6957 1.53248 28.6488C0.891506 28.6332 0.375583 28.1017 0.391217 27.4451C0.40685 26.8041 0.922758 26.3038 1.56373 26.3038H1.59499C4.9562 26.382 7.36378 28.7739 7.42632 32.1351C7.44195 32.7761 6.92603 33.3233 6.28505 33.3389C6.26942 33.3389 6.26943 33.3389 6.2538 33.3389Z" fill="#4361EE"/>
<path d="M10.9439 33.3388C10.3029 33.3388 9.77134 32.8229 9.77134 32.1819C9.75569 31.1501 9.58372 30.1652 9.27105 29.2428C8.47374 26.9603 6.76968 25.2717 4.48718 24.4588C3.5648 24.1305 2.57989 23.9586 1.54807 23.9586C0.907099 23.9586 0.375573 23.4271 0.391207 22.7705C0.391207 22.1295 0.922748 21.6136 1.56372 21.6136H1.57936C2.87694 21.6292 4.11198 21.8481 5.26886 22.2546C8.2236 23.302 10.4279 25.5064 11.4754 28.4611C11.8819 29.618 12.1007 30.8687 12.1164 32.1506C12.1164 32.8072 11.6005 33.3388 10.9439 33.3388Z" fill="#4361EE"/>
<path d="M1.56336 33.7298C0.687877 33.7298 0 33.0263 0 32.1665C0 31.3066 0.70351 30.6031 1.56336 30.6031C2.4232 30.6031 3.12671 31.3066 3.12671 32.1665C3.12671 33.0263 2.43884 33.7298 1.56336 33.7298Z" fill="#4361EE"/>
</svg>
