<svg width="22" height="16" viewBox="0 0 22 16" fill="none" xmlns="http://www.w3.org/2000/svg">
<path d="M18.3333 3.3H8.8V8.82837H7.78461V6.9492C7.78343 5.88451 7.35997 4.86375 6.60712 4.11089C5.85427 3.35802 4.83353 2.93453 3.76883 2.93333H1.46667V0H0V15.7667H1.46667V13.5784L20.5333 13.731V15.7667H22V6.96667C21.9989 5.99454 21.6122 5.06255 20.9248 4.37516C20.2374 3.68777 19.3055 3.3011 18.3333 3.3ZM1.46667 4.4H3.76883C4.44466 4.40076 5.09259 4.66958 5.57048 5.14746C6.04837 5.62535 6.31718 6.27328 6.31794 6.94911V8.82828H1.46667V4.4ZM20.5333 12.2643L1.46667 12.1117V10.295H20.5333V12.2643ZM20.5333 8.82837H10.2667V4.76667H18.3333C18.9166 4.76733 19.4758 4.99933 19.8882 5.41177C20.3007 5.8242 20.5327 6.38339 20.5333 6.96667V8.82837Z" fill="#2B2B2B"/>
</svg>
