<svg width="37" height="41" viewBox="0 0 37 41" fill="none" xmlns="http://www.w3.org/2000/svg">
<path d="M35.5 13.8127V26.6118C35.5 28.7075 34.3773 30.6536 32.5622 31.7202L21.4471 38.1385C19.6321 39.1864 17.3866 39.1864 15.5528 38.1385L4.43781 31.7202C2.62273 30.6723 1.5 28.7262 1.5 26.6118V13.8127C1.5 11.7169 2.62273 9.77077 4.43781 8.70418L15.5528 2.28591C17.3679 1.23803 19.6133 1.23803 21.4471 2.28591L32.5622 8.70418C34.3773 9.77077 35.5 11.6982 35.5 13.8127Z" stroke="#4361EE" stroke-width="3" stroke-linecap="round" stroke-linejoin="round"/>
<path d="M18.5093 18.3412C20.9174 18.3412 22.8692 16.3891 22.8692 13.9812C22.8692 11.5733 20.9174 9.62134 18.5093 9.62134C16.1014 9.62134 14.1494 11.5733 14.1494 13.9812C14.1494 16.3891 16.1014 18.3412 18.5093 18.3412Z" stroke="#4361EE" stroke-width="3" stroke-linecap="round" stroke-linejoin="round"/>
<path d="M25.9942 28.9325C25.9942 25.5643 22.6447 22.8323 18.5093 22.8323C14.3739 22.8323 11.0244 25.5643 11.0244 28.9325" stroke="#4361EE" stroke-width="3" stroke-linecap="round" stroke-linejoin="round"/>
</svg>
