<svg width="14" height="16" viewBox="0 0 14 16" fill="none" xmlns="http://www.w3.org/2000/svg">
<path d="M8.68524 7.8769C8.86697 7.57848 9.05481 7.26991 9.24033 6.95176C9.8613 5.88726 9.97525 4.81466 9.57913 3.7637C8.77984 1.64321 6.10797 0.351223 5.48942 0.145082L5.05447 0L4.37561 1.35797L4.70321 1.6256C4.70688 1.62854 5.07076 1.94649 5.09501 2.42849C5.11572 2.83995 4.89016 3.28458 4.42475 3.75012C4.10154 4.07329 3.74682 4.38579 3.37124 4.71659C1.79104 6.1082 0 7.68593 0 10.6706C0 10.7116 0.00038547 10.7524 0.00115642 10.7929C0.0126082 11.4515 0.154068 12.1014 0.417412 12.7052C0.680755 13.309 1.06079 13.8549 1.5357 14.3114C2.48933 15.2389 3.76796 15.7566 5.09828 15.7538H8.14133L7.76569 14.9915C6.23944 11.8939 7.31878 10.1212 8.68524 7.8769Z" fill="#FF1111"/>
<path d="M13.8759 10.6367C13.8671 10.6017 13.8579 10.5667 13.8484 10.5314C13.4669 9.13275 11.3552 7.33435 11.1157 7.13389L10.6347 6.73139L10.3193 7.27352C9.60061 8.50924 8.9838 9.63633 8.71492 10.915C8.40833 12.3732 8.61471 13.8553 9.346 15.4459L9.48744 15.7537H9.84686C10.4799 15.7555 11.1049 15.612 11.6738 15.3342C12.2426 15.0563 12.74 14.6516 13.1278 14.1512C13.5132 13.6618 13.7811 13.0903 13.9108 12.481C14.0405 11.8717 14.0286 11.2407 13.8759 10.6367Z" fill="#FF1111"/>
</svg>
