<svg width="14" height="14" viewBox="0 0 14 14" fill="none" xmlns="http://www.w3.org/2000/svg">
<path d="M12.0256 14C11.7313 14 11.4872 13.7786 11.4872 13.5116V6.34885C11.4872 6.08187 11.7313 5.86047 12.0256 5.86047C12.32 5.86047 12.5641 6.08187 12.5641 6.34885V13.5116C12.5641 13.7786 12.32 14 12.0256 14Z" fill="#3A0CA3"/>
<path d="M12.0256 4.23256C11.7313 4.23256 11.4872 4.01116 11.4872 3.74419V0.488372C11.4872 0.221395 11.7313 0 12.0256 0C12.32 0 12.5641 0.221395 12.5641 0.488372V3.74419C12.5641 4.01116 12.32 4.23256 12.0256 4.23256Z" fill="#3A0CA3"/>
<path d="M7.00001 14C6.70565 14 6.46155 13.7786 6.46155 13.5116V10.2558C6.46155 9.98885 6.70565 9.76746 7.00001 9.76746C7.29437 9.76746 7.53847 9.98885 7.53847 10.2558V13.5116C7.53847 13.7786 7.29437 14 7.00001 14Z" fill="#3A0CA3"/>
<path d="M7.00001 8.13953C6.70565 8.13953 6.46155 7.91814 6.46155 7.65116V0.488372C6.46155 0.221395 6.70565 0 7.00001 0C7.29437 0 7.53847 0.221395 7.53847 0.488372V7.65116C7.53847 7.91814 7.29437 8.13953 7.00001 8.13953Z" fill="#3A0CA3"/>
<path d="M1.97437 14C1.68002 14 1.43591 13.7786 1.43591 13.5116V6.34885C1.43591 6.08187 1.68002 5.86047 1.97437 5.86047C2.26873 5.86047 2.51284 6.08187 2.51284 6.34885V13.5116C2.51284 13.7786 2.26873 14 1.97437 14Z" fill="#3A0CA3"/>
<path d="M1.97437 4.23256C1.68002 4.23256 1.43591 4.01116 1.43591 3.74419V0.488372C1.43591 0.221395 1.68002 0 1.97437 0C2.26873 0 2.51284 0.221395 2.51284 0.488372V3.74419C2.51284 4.01116 2.26873 4.23256 1.97437 4.23256Z" fill="#3A0CA3"/>
<path d="M3.41026 6.83722H0.538462C0.244103 6.83722 0 6.61582 0 6.34885C0 6.08187 0.244103 5.86047 0.538462 5.86047H3.41026C3.70462 5.86047 3.94872 6.08187 3.94872 6.34885C3.94872 6.61582 3.70462 6.83722 3.41026 6.83722Z" fill="#3A0CA3"/>
<path d="M13.4615 6.83722H10.5897C10.2954 6.83722 10.0513 6.61582 10.0513 6.34885C10.0513 6.08187 10.2954 5.86047 10.5897 5.86047H13.4615C13.7559 5.86047 14 6.08187 14 6.34885C14 6.61582 13.7559 6.83722 13.4615 6.83722Z" fill="#3A0CA3"/>
<path d="M8.43589 8.13946H5.5641C5.26974 8.13946 5.02563 7.91807 5.02563 7.65109C5.02563 7.38412 5.26974 7.16272 5.5641 7.16272H8.43589C8.73025 7.16272 8.97435 7.38412 8.97435 7.65109C8.97435 7.91807 8.73025 8.13946 8.43589 8.13946Z" fill="#3A0CA3"/>
</svg>
