<svg width="27" height="27" viewBox="0 0 27 27" fill="none" xmlns="http://www.w3.org/2000/svg">
<path d="M25.7937 21.4013L21.3356 16.9433L17.9066 15.5266C19.0483 13.9029 19.66 11.9659 19.6578 9.98094C19.6578 4.64522 15.3169 0.304312 9.98119 0.304312C4.64547 0.304312 0.30456 4.64522 0.30456 9.98094C0.30456 15.3167 4.64547 19.6576 9.98119 19.6576C11.9834 19.6599 13.9365 19.0376 15.5683 17.8775L16.9813 21.2973L21.4392 25.7556C21.7251 26.0415 22.0645 26.2683 22.4381 26.423C22.8116 26.5778 23.212 26.6574 23.6164 26.6574C24.0207 26.6575 24.4211 26.5778 24.7946 26.4231C25.1682 26.2684 25.5076 26.0416 25.7936 25.7557C26.0795 25.4698 26.3063 25.1304 26.461 24.7568C26.6158 24.3833 26.6954 23.9829 26.6954 23.5786C26.6955 23.1742 26.6158 22.7738 26.4611 22.4003C26.3064 22.0267 26.0796 21.6873 25.7937 21.4013ZM2.06395 9.98094C2.06395 5.61546 5.61571 2.0637 9.98119 2.0637C14.3467 2.0637 17.8984 5.61546 17.8984 9.98094C17.8984 14.3464 14.3467 17.8982 9.98119 17.8982C5.61571 17.8982 2.06395 14.3464 2.06395 9.98094ZM24.5495 24.5115C24.3019 24.7586 23.9663 24.8974 23.6165 24.8974C23.2666 24.8974 22.931 24.7586 22.6834 24.5115L18.4734 20.3015L17.1597 17.1217L20.3396 18.4354L24.5496 22.6454C24.7967 22.8931 24.9355 23.2286 24.9354 23.5785C24.9354 23.9283 24.7966 24.2639 24.5495 24.5115Z" fill="white" stroke="white" stroke-width="0.6"/>
</svg>
