<svg width="25" height="26" viewBox="0 0 25 26" fill="none" xmlns="http://www.w3.org/2000/svg">
<path d="M23.8896 10.632L13.1868 0.785506C12.8389 0.465402 12.3807 0.292166 11.908 0.302009C11.4353 0.311852 10.9847 0.504012 10.6504 0.838322L0.807009 10.6818L0.301857 11.1869V25.6982H9.78725V16.644H14.9611V25.6982H24.4465V11.1445L23.8896 10.632ZM11.9451 2.02626C11.9603 2.02626 11.9509 2.02955 11.9444 2.03596C11.9376 2.02955 11.9299 2.02626 11.9451 2.02626ZM22.7219 23.9736H16.6857V16.644C16.6857 16.1866 16.504 15.7479 16.1806 15.4245C15.8572 15.101 15.4185 14.9193 14.9611 14.9193H9.78725C9.32986 14.9193 8.89119 15.101 8.56777 15.4245C8.24434 15.7479 8.06264 16.1866 8.06264 16.644V23.9736H2.02647L2.02648 11.9013L11.9451 2.05779L11.9464 2.0559L22.7219 11.9013V23.9736Z" fill="white" stroke="white" stroke-width="0.6"/>
</svg>
