<svg width="28" height="21" viewBox="0 0 28 21" fill="none" xmlns="http://www.w3.org/2000/svg">
<path d="M23.3333 4.2H11.2V11.2361H9.90768V8.84444C9.90619 7.48937 9.36723 6.19023 8.40906 5.23204C7.45089 4.27385 6.15176 3.73486 4.79669 3.73333H1.86667V0H0V20.0667H1.86667V17.2817L26.1333 17.4758V20.0667H28V8.86667C27.9986 7.62942 27.5065 6.44325 26.6316 5.56839C25.7567 4.69352 24.5706 4.20141 23.3333 4.2ZM1.86667 5.6H4.79669C5.65684 5.60097 6.48148 5.9431 7.0897 6.55132C7.69792 7.15953 8.04004 7.98418 8.04102 8.84433V11.236H1.86667V5.6ZM26.1333 15.6091L1.86667 15.4149V13.1028H26.1333V15.6091ZM26.1333 11.2361H13.0667V6.06667H23.3333C24.0757 6.06752 24.7874 6.36279 25.3123 6.88771C25.8372 7.41263 26.1325 8.12432 26.1333 8.86667V11.2361Z" fill="white"/>
</svg>
